<svg width="240" height="240" viewBox="0 0 240 240" fill="none" xmlns="http://www.w3.org/2000/svg">
<path fill-rule="evenodd" clip-rule="evenodd" d="M0 120C0 53.726 53.726 0 120 0C186.274 0 240 53.726 240 120C240 186.274 186.274 240 120 240C53.726 240 0 186.274 0 120Z" fill="white"/>
<path d="M87.2166 129.119C87.2166 176.104 99.4837 199.249 120.777 199.249C136.979 199.249 138.368 192.769 138.368 180.964V136.062H123.555V130.97H190.214V136.062H181.187V201.332H177.715C174.938 197.398 172.392 195.546 165.911 195.546C162.17 195.546 157.106 196.906 151.071 198.528C142.171 200.919 131.157 203.878 119.157 203.878C70.089 203.878 40 177.955 40 122.638C40 66.6261 72.4036 37 119.852 37C135.085 37 145.684 39.8737 153.467 41.9838C157.981 43.208 161.548 44.1751 164.522 44.1751C168.226 44.1751 169.151 42.5549 170.772 39.546H173.318L175.169 89.7715H171.003C158.042 63.8487 142.997 41.6291 122.629 41.6291C99.7151 41.6291 87.2166 62.9228 87.2166 110.834V129.119Z" fill="black"/>
</svg>
